<?xml version="1.0" encoding="utf-8"?>
<!-- Generator: Adobe Illustrator 13.0.2, SVG Export Plug-In . SVG Version: 6.00 Build 14948)  -->
<!DOCTYPE svg PUBLIC "-//W3C//DTD SVG 1.1 Tiny//EN" "http://www.w3.org/Graphics/SVG/1.1/DTD/svg11-tiny.dtd">
<svg version="1.1" baseProfile="tiny" id="FP7_LOGOS"
	 xmlns="http://www.w3.org/2000/svg" xmlns:xlink="http://www.w3.org/1999/xlink" x="0px" y="0px" width="1304.02px"
	 height="1061.449px" viewBox="-170 531.889 1304.02 1061.449" xml:space="preserve">
<g>
	<g>
		<path fill="#FFFFFF" d="M1134.02,1506.755c0,47.634-38.905,86.584-86.464,86.584H-83.524c-47.572,0-86.476-38.95-86.476-86.584
			V618.48c0-47.64,38.903-86.591,86.476-86.591h1131.08c47.559,0,86.464,38.951,86.464,86.591V1506.755z"/>
		<path fill="#00AEEF" d="M-121.734,1321.774l434.199,0.072l2.324-37.838C128.137,1288.601-27.114,1303.553-121.734,1321.774"/>
		<path fill="#034EA2" d="M-50.096,1431.513c-8.992,0-18.098-2.397-25.837-7.06l5.011-10.016c7.052,4.103,13.31,6.487,21.278,6.487
			c9.666,0,15.471-4.66,15.471-12.521c0-5.799-3.637-9.449-11.719-11.712l-8.426-2.399c-7.173-2.047-12.286-5.004-15.249-9.449
			c-2.156-3.186-3.3-6.938-3.3-11.497c0-13.883,10.924-23.325,26.739-23.325c8.992,0,17.977,2.613,24.928,7.511l-5.92,9.214
			c-7.282-4.325-12.292-6.035-18.549-6.035c-7.739,0-12.858,4.216-12.858,10.703c0,4.89,2.728,7.388,10.467,9.665l9.335,2.733
			c11.376,3.301,19.344,10.588,19.344,22.416C-19.376,1419.328-29.957,1431.513-50.096,1431.513z M-2.981,1430.031v-78.751h43.699
			l-1.71,10.696H10.099v21.513h24.24v10.804H10.328v24.586h31.528v11.152H-2.981L-2.981,1430.031z M85.555,1430.375H73.378
			l-26.524-79.095h14.34l14.226,44.609c3.186,10.017,4.095,15.814,4.095,15.814h0.228c0,0,0.91-4.782,4.776-16.508l14.467-43.916
			h13.653L85.555,1430.375z M122.991,1430.031v-78.751h43.699l-1.71,10.696h-28.901v21.513h24.241v10.804h-24.005v24.586h31.515
			v11.152H122.991L122.991,1430.031z M223.592,1430.031l-17.64-36.983c-4.209-8.77-8.534-18.663-10.016-23.325l-0.343,0.337
			c0.573,6.601,0.681,14.913,0.802,21.85l0.452,38.122h-12.858v-78.751h14.791l19.122,38.461c3.637,7.287,7.052,16.616,8.083,20.26
			l0.336-0.336c-0.336-3.987-1.138-15.25-1.138-22.417l-0.229-35.96h12.4v78.751h-13.761V1430.031z M302.571,1362.207h-19.802
			v67.824h-13.08v-67.824h-19.923v-10.927h54.509L302.571,1362.207z M355.148,1430.031v-36.418h-26.854v36.418h-12.972v-78.751
			h12.972v31.637h26.854v-31.637h13.202v78.751H355.148z M454.159,1361.983h-26.975v21.393h21.963v10.58h-21.963v36.075h-13.087
			v-78.751h41.651L454.159,1361.983z M505.933,1430.031l-6.829-12.178c-5.463-9.673-9.107-15.133-13.431-19.466
			c-1.475-1.475-2.613-2.27-5.12-2.383v34.026h-12.858v-78.751h24.005c17.647,0,25.601,10.239,25.601,22.531
			c0,11.268-7.28,21.62-19.572,21.62c2.849,1.475,8.075,9.105,12.184,15.706l11.605,18.894H505.933z M480.561,1361.863v24.928h6.716
			c6.829,0,10.467-0.91,12.864-3.302c2.155-2.16,3.522-5.461,3.522-9.563c0-7.962-4.324-12.062-15.936-12.062H480.561z
			 M576.38,1430.031l-6.372-20.717h-25.494l-6.371,20.717h-13.539l25.837-78.865h15.128l25.151,78.865H576.38z M557.716,1364.827
			h-0.108c0,0-8.083,28.329-9.908,33.561h19.344C566.257,1396.692,558.282,1367.89,557.716,1364.827z M664.573,1430.031
			l-3.644-48.817c-0.337-5.013-0.573-10.926-0.573-13.323c-0.572,2.613-1.589,7.287-3.063,12.293l-14.34,49.848h-11.154
			l-13.088-47.679c-1.475-5.241-2.957-11.95-3.414-14.568c0,2.618-0.451,9.786-0.788,14.682l-3.416,47.565h-12.858l7.173-78.751
			h17.412l12.062,44.609c1.818,6.601,2.5,10.696,2.957,13.081c0.344-2.392,1.367-7.396,2.849-12.857l12.401-44.838h17.41
			l6.943,78.749h-12.87V1430.031z M695.644,1430.031v-78.751h43.699l-1.711,10.696h-28.908v21.513h24.248v10.804H708.96v24.586
			h31.521v11.152H695.644L695.644,1430.031z M820.714,1430.49h-15.02l-8.076-36.534c-2.62-11.834-3.874-22.759-3.874-22.759h-0.343
			c0,0-2.047,12.865-3.98,22.416l-7.624,36.877h-15.363l-18.778-79.202h13.996l7.853,36.642c2.729,12.742,4.21,25.264,4.21,25.264
			h0.344c0,0,2.277-14.791,4.324-24.355l8.19-37.55h14.676l8.198,39.146c1.933,9.329,3.864,22.188,3.864,22.188h0.344
			c0,0,2.613-16.617,4.547-25.603l7.518-35.731h13.653L820.714,1430.49z M844.159,1390.656c0-25.951,13.201-40.514,32.89-40.514
			c22.188,0,32.889,17.642,32.889,40.629c0,24.577-11.84,40.514-32.323,40.514C855.199,1431.285,844.159,1413.988,844.159,1390.656z
			 M895.026,1391.573c0-19.237-3.987-31.3-18.099-31.3c-13.201,0-18.212,10.696-18.212,29.588c0,20.253,5.126,31.516,18.551,31.516
			C888.997,1421.377,895.026,1412.727,895.026,1391.573z M963.876,1430.031l-6.824-12.178c-5.462-9.673-9.105-15.133-13.43-19.466
			c-1.475-1.475-2.613-2.27-5.126-2.383v34.026h-12.857v-78.751h24.011c17.642,0,25.602,10.239,25.602,22.531
			c0,11.268-7.28,21.62-19.573,21.62c2.849,1.475,8.075,9.105,12.178,15.706l11.611,18.894H963.876z M938.496,1361.863v24.928h6.716
			c6.829,0,10.473-0.91,12.863-3.302c2.164-2.16,3.523-5.461,3.523-9.563c0-7.962-4.323-12.062-15.93-12.062H938.496z
			 M992.892,1430.031v-78.751h13.323v78.751H992.892z M1048.089,1351.28l-27.312,36.534l29.138,42.217h-17.075l-26.511-41.995
			l25.603-36.756H1048.089z"/>
		<path fill="#034EA2" d="M191.444,1503.447h-13.309v30.04h-12.973v-78.749h20.94c11.498,0,15.708,1.131,20.031,3.759
			c6.938,4.094,10.804,11.146,10.804,19.802C216.937,1493.769,205.668,1503.447,191.444,1503.447z M178.135,1465.318v27.656h10.244
			c9.666,0,14.11-4.554,14.11-13.89c0-4.324-1.023-7.617-3.185-9.901c-2.391-2.503-5.799-3.872-10.925-3.872h-10.244V1465.318z
			 M267.466,1533.487l-6.83-12.184c-5.462-9.665-9.099-15.128-13.423-19.458c-1.488-1.482-2.626-2.271-5.126-2.393v34.034h-12.857
			v-78.749h24.012c17.633,0,25.601,10.237,25.601,22.53c0,11.261-7.288,21.62-19.58,21.62c2.843,1.475,8.083,9.105,12.178,15.699
			l11.605,18.894h-15.579V1533.487z M242.094,1465.318v24.928h6.715c6.83,0,10.474-0.91,12.858-3.3
			c2.155-2.162,3.529-5.462,3.529-9.564c0-7.961-4.324-12.063-15.929-12.063H242.094z M290.225,1494.113
			c0-25.953,13.202-40.514,32.896-40.514c22.187,0,32.889,17.64,32.889,40.627c0,24.584-11.833,40.514-32.316,40.514
			C301.271,1534.74,290.225,1517.444,290.225,1494.113z M341.098,1495.021c0-19.229-3.987-31.293-18.099-31.293
			c-13.202,0-18.206,10.696-18.206,29.59c0,20.253,5.126,31.515,18.543,31.515C335.063,1524.833,341.098,1516.185,341.098,1495.021z
			 M401.528,1534.511c-11.046,0-19.58-3.523-25.723-11.147c-6.035-7.396-8.762-16.272-8.762-28.672
			c0-16.165,4.889-27.541,14.79-34.829c5.691-4.325,11.834-6.144,19.466-6.144c8.985,0,16.953,2.735,23.439,8.312l-6.601,8.19
			c-5.463-4.203-10.588-6.034-16.61-6.034c-14.569,0-19.917,12.75-19.917,31.185c0,11.039,2.048,18.778,5.8,23.218
			c3.186,3.751,8.877,5.906,14.912,5.906c4.102,0,7.51-0.91,10.473-2.493v-20.488h-13.43l-1.819-10.701h28.558v37.098
			C418.933,1532.235,410.284,1534.511,401.528,1534.511z M483.115,1533.487l-6.824-12.184c-5.462-9.665-9.106-15.128-13.43-19.458
			c-1.476-1.482-2.613-2.271-5.12-2.393v34.034h-12.864v-78.749h24.011c17.64,0,25.602,10.237,25.602,22.53
			c0,11.261-7.281,21.62-19.574,21.62c2.85,1.475,8.077,9.105,12.178,15.699l11.612,18.894h-15.593V1533.487z M457.741,1465.318
			v24.928h6.709c6.83,0,10.474-0.91,12.865-3.3c2.162-2.162,3.53-5.462,3.53-9.564c0-7.961-4.331-12.063-15.937-12.063H457.741z
			 M553.567,1533.487l-6.378-20.718h-25.487l-6.372,20.718h-13.545l25.837-78.864h15.135l25.143,78.864H553.567z M534.904,1468.282
			h-0.122c0,0-8.076,28.329-9.902,33.563h19.344C543.43,1500.147,535.475,1471.347,534.904,1468.282z M641.76,1533.487
			l-3.637-48.818c-0.336-5.011-0.572-10.924-0.572-13.321c-0.574,2.613-1.597,7.287-3.072,12.291l-14.34,49.849h-11.155
			l-13.086-47.68c-1.475-5.239-2.957-11.949-3.416-14.568c0,2.619-0.457,9.786-0.8,14.684l-3.416,47.564h-12.852l7.174-78.749
			h17.404l12.063,44.608c1.818,6.602,2.505,10.701,2.957,13.087c0.351-2.393,1.367-7.396,2.849-12.858l12.413-44.837h17.405
			l6.937,78.749H641.76z M735.531,1533.487l-3.644-48.818c-0.337-5.011-0.572-10.924-0.572-13.321
			c-0.571,2.613-1.59,7.287-3.071,12.291l-14.333,49.849h-11.154l-13.087-47.68c-1.475-5.239-2.956-11.949-3.415-14.568
			c0,2.619-0.451,9.786-0.788,14.684l-3.415,47.564h-12.858l7.175-78.749h17.404l12.063,44.608
			c1.825,6.602,2.505,10.701,2.964,13.087c0.343-2.393,1.366-7.396,2.849-12.858l12.399-44.837h17.411l6.944,78.749H735.531z
			 M766.602,1533.487v-78.749h43.699l-1.71,10.695h-28.91v21.513h24.248v10.804h-24.013v24.577h31.523v11.154h-44.838V1533.487z"/>
		<path fill="#00AEEF" d="M575.289,1283.948l-2.385,37.791l513.59,0.028C992.185,1303.615,740.084,1289.065,575.289,1283.948"/>
		<path fill="#00AEEF" d="M747.353,617.099l-14.104-31.125c-235.592,163.321-393.524,431.027-406.349,735.658h33.637
			C373.252,1030.608,523.291,774.647,747.353,617.099"/>
		<path fill="#00AEEF" d="M768.137,662.941l-14.286-31.522c-218.76,154.888-365.174,405.446-377.836,690.214h34
			C422.536,1050.612,561.01,811.948,768.137,662.941"/>
		<path fill="#00AEEF" d="M809.869,754.994l-14.655-32.331C610.03,860.416,486.503,1076.61,474.278,1321.633h34.68
			C521.028,1090.653,636.514,886.61,809.869,754.994"/>
		<path fill="#00AEEF" d="M788.977,708.91l-14.455-31.898c-201.954,146.374-336.918,379.729-349.379,644.621h34.324
			C471.779,1070.622,598.755,849.263,788.977,708.91"/>
		<path fill="#00AEEF" d="M815.999,768.498c-168.427,129.038-280.571,327.996-292.56,553.135h35.052
			c11.787-210.968,115.808-397.714,272.326-520.447L815.999,768.498z"/>
		<path fill="#034EA2" d="M774.589,677.173l-447.918,0.094v31.617l462.306,0.027L774.589,677.173z M795.2,722.758l-468.53,0.095
			v32.155l483.199-0.013L795.2,722.758z M815.972,768.587l-489.301,0.094v32.565l504.146-0.061L815.972,768.587z M753.831,631.412
			l-427.161,0.094v31.576l441.466-0.142L753.831,631.412z M733.368,586.001l-406.698,0.102v30.962l420.682-0.013L733.368,586.001z"
			/>
	</g>
	<rect x="-170" y="531.889" fill="none" width="1304.02" height="1061.449"/>
</g>
</svg>
