<?xml version="1.0" encoding="utf-8"?>
<!-- Generator: Adobe Illustrator 13.0.2, SVG Export Plug-In . SVG Version: 6.00 Build 14948)  -->
<!DOCTYPE svg PUBLIC "-//W3C//DTD SVG 1.1 Tiny//EN" "http://www.w3.org/Graphics/SVG/1.1/DTD/svg11-tiny.dtd">
<svg version="1.1" baseProfile="tiny" id="FP7_LOGOS"
	 xmlns="http://www.w3.org/2000/svg" xmlns:xlink="http://www.w3.org/1999/xlink" x="0px" y="0px" width="189.069px"
	 height="153.898px" viewBox="0 0 189.069 153.898" xml:space="preserve">
<g>
	<path fill="#FFFFFF" d="M189.069,141.344c0,6.907-5.641,12.554-12.537,12.554H12.538C5.641,153.898,0,148.251,0,141.344V12.554
		C0,5.647,5.641,0,12.538,0h163.994c6.896,0,12.537,5.647,12.537,12.554V141.344z"/>
	<path fill="#00AEEF" d="M6.998,114.524l62.954,0.011l0.337-5.486C43.227,109.715,20.717,111.883,6.998,114.524"/>
	<path fill="#034EA2" d="M17.385,130.435c-1.304,0-2.624-0.347-3.746-1.023l0.726-1.452c1.023,0.594,1.93,0.94,3.085,0.94
		c1.402,0,2.244-0.676,2.244-1.815c0-0.841-0.528-1.37-1.7-1.699l-1.221-0.347c-1.04-0.297-1.782-0.726-2.211-1.37
		c-0.313-0.462-0.479-1.006-0.479-1.667c0-2.013,1.584-3.382,3.877-3.382c1.304,0,2.607,0.379,3.614,1.089l-0.858,1.336
		c-1.056-0.627-1.782-0.875-2.689-0.875c-1.122,0-1.865,0.611-1.865,1.551c0,0.709,0.396,1.072,1.518,1.402l1.353,0.396
		c1.65,0.479,2.805,1.535,2.805,3.25C21.839,128.669,20.305,130.435,17.385,130.435z M24.216,130.22v-11.418h6.336l-0.248,1.551
		h-4.191v3.119h3.514v1.567h-3.481v3.564h4.571v1.617H24.216z M37.053,130.27h-1.766l-3.845-11.468h2.079l2.062,6.468
		c0.462,1.452,0.594,2.293,0.594,2.293h0.033c0,0,0.132-0.693,0.693-2.393L39,118.802h1.98L37.053,130.27z M42.481,130.22v-11.418
		h6.336l-0.248,1.551h-4.191v3.119h3.515v1.567h-3.481v3.564h4.57v1.617H42.481z M57.067,130.22l-2.558-5.362
		c-0.61-1.271-1.237-2.706-1.452-3.382l-0.05,0.049c0.083,0.957,0.099,2.162,0.116,3.168l0.066,5.527h-1.865v-11.418h2.145
		l2.772,5.577c0.528,1.056,1.023,2.409,1.172,2.937l0.049-0.049c-0.049-0.578-0.165-2.211-0.165-3.25l-0.033-5.214h1.798v11.418
		H57.067z M68.518,120.386h-2.871v9.834H63.75v-9.834h-2.888v-1.584h7.903L68.518,120.386z M76.141,130.22v-5.28h-3.894v5.28h-1.881
		v-11.418h1.881v4.587h3.894v-4.587h1.914v11.418H76.141z M90.496,120.354h-3.911v3.102h3.185v1.534h-3.185v5.23h-1.897v-11.418
		h6.039L90.496,120.354z M98.003,130.22l-0.99-1.765c-0.792-1.403-1.32-2.195-1.947-2.822c-0.214-0.214-0.379-0.33-0.743-0.346
		v4.933h-1.864v-11.418h3.481c2.558,0,3.712,1.485,3.712,3.267c0,1.634-1.056,3.135-2.838,3.135c0.413,0.214,1.171,1.32,1.766,2.277
		l1.683,2.739H98.003z M94.324,120.337v3.614h0.974c0.99,0,1.518-0.132,1.865-0.479c0.313-0.313,0.511-0.792,0.511-1.386
		c0-1.155-0.627-1.749-2.31-1.749H94.324z M108.217,130.22l-0.924-3.003h-3.696l-0.924,3.003h-1.963l3.746-11.434h2.194
		l3.646,11.434H108.217z M105.511,120.766h-0.016c0,0-1.172,4.108-1.436,4.867h2.805
		C106.749,125.386,105.593,121.211,105.511,120.766z M121.004,130.22l-0.528-7.078c-0.049-0.726-0.083-1.584-0.083-1.931
		c-0.083,0.379-0.231,1.056-0.445,1.782l-2.079,7.227h-1.617l-1.897-6.913c-0.214-0.759-0.429-1.732-0.495-2.112
		c0,0.38-0.066,1.419-0.115,2.129l-0.495,6.896h-1.864l1.04-11.418h2.524l1.749,6.468c0.264,0.957,0.363,1.551,0.429,1.897
		c0.05-0.347,0.198-1.073,0.413-1.865l1.798-6.501h2.525l1.006,11.418H121.004z M125.509,130.22v-11.418h6.336l-0.248,1.551h-4.191
		v3.119h3.515v1.567h-3.481v3.564h4.57v1.617H125.509z M143.643,130.287h-2.178l-1.171-5.297c-0.38-1.716-0.561-3.3-0.561-3.3h-0.05
		c0,0-0.297,1.865-0.577,3.25L138,130.287h-2.227l-2.723-11.484h2.029l1.139,5.313c0.396,1.848,0.61,3.663,0.61,3.663h0.05
		c0,0,0.33-2.145,0.627-3.531l1.188-5.445h2.128l1.188,5.676c0.28,1.353,0.561,3.217,0.561,3.217h0.049c0,0,0.379-2.409,0.66-3.712
		l1.089-5.181h1.98L143.643,130.287z M147.042,124.511c0-3.762,1.914-5.874,4.769-5.874c3.217,0,4.768,2.558,4.768,5.891
		c0,3.564-1.716,5.874-4.686,5.874C148.643,130.402,147.042,127.894,147.042,124.511z M154.417,124.644
		c0-2.789-0.578-4.538-2.624-4.538c-1.914,0-2.64,1.551-2.64,4.29c0,2.937,0.743,4.57,2.689,4.57
		C153.543,128.966,154.417,127.712,154.417,124.644z M164.4,130.22l-0.99-1.765c-0.792-1.403-1.32-2.195-1.947-2.822
		c-0.214-0.214-0.379-0.33-0.743-0.346v4.933h-1.864v-11.418h3.481c2.558,0,3.712,1.485,3.712,3.267
		c0,1.634-1.056,3.135-2.838,3.135c0.413,0.214,1.171,1.32,1.766,2.277l1.683,2.739H164.4z M160.72,120.337v3.614h0.974
		c0.99,0,1.518-0.132,1.865-0.479c0.313-0.313,0.511-0.792,0.511-1.386c0-1.155-0.627-1.749-2.31-1.749H160.72z M168.607,130.22
		v-11.418h1.931v11.418H168.607z M176.61,118.802l-3.96,5.297l4.224,6.121h-2.475l-3.844-6.088l3.712-5.33H176.61z"/>
	<path fill="#034EA2" d="M52.406,140.865h-1.93v4.355h-1.881v-11.418h3.036c1.667,0,2.277,0.165,2.904,0.545
		c1.006,0.594,1.567,1.617,1.567,2.871C56.102,139.462,54.468,140.865,52.406,140.865z M50.476,135.337v4.009h1.485
		c1.402,0,2.046-0.66,2.046-2.013c0-0.627-0.148-1.105-0.462-1.436c-0.347-0.363-0.841-0.561-1.584-0.561H50.476z M63.428,145.22
		l-0.99-1.766c-0.792-1.402-1.32-2.194-1.947-2.821c-0.215-0.215-0.38-0.33-0.743-0.347v4.934h-1.864v-11.418h3.481
		c2.557,0,3.712,1.485,3.712,3.267c0,1.633-1.056,3.135-2.838,3.135c0.412,0.214,1.171,1.32,1.765,2.276l1.683,2.739H63.428z
		 M59.749,135.337v3.614h0.974c0.99,0,1.518-0.132,1.864-0.479c0.313-0.313,0.512-0.792,0.512-1.386c0-1.155-0.627-1.749-2.31-1.749
		H59.749z M66.728,139.511c0-3.762,1.914-5.874,4.769-5.874c3.217,0,4.769,2.558,4.769,5.891c0,3.564-1.716,5.874-4.686,5.874
		C68.329,145.402,66.728,142.894,66.728,139.511z M74.104,139.643c0-2.788-0.578-4.537-2.624-4.537c-1.914,0-2.64,1.551-2.64,4.29
		c0,2.937,0.743,4.57,2.689,4.57C73.229,143.966,74.104,142.712,74.104,139.643z M82.865,145.369c-1.601,0-2.838-0.511-3.729-1.616
		c-0.875-1.073-1.271-2.36-1.271-4.158c0-2.343,0.709-3.993,2.145-5.049c0.825-0.627,1.716-0.891,2.822-0.891
		c1.303,0,2.458,0.396,3.399,1.205l-0.957,1.188c-0.792-0.61-1.535-0.875-2.409-0.875c-2.112,0-2.887,1.848-2.887,4.521
		c0,1.601,0.297,2.723,0.841,3.366c0.462,0.544,1.287,0.857,2.162,0.857c0.594,0,1.089-0.132,1.518-0.362v-2.97h-1.947l-0.264-1.552
		h4.141v5.379C85.389,145.039,84.135,145.369,82.865,145.369z M94.695,145.22l-0.99-1.766c-0.792-1.402-1.32-2.194-1.947-2.821
		c-0.214-0.215-0.379-0.33-0.742-0.347v4.934h-1.865v-11.418h3.481c2.558,0,3.712,1.485,3.712,3.267
		c0,1.633-1.056,3.135-2.838,3.135c0.413,0.214,1.171,1.32,1.766,2.276l1.683,2.739H94.695z M91.016,135.337v3.614h0.973
		c0.99,0,1.518-0.132,1.865-0.479c0.313-0.313,0.511-0.792,0.511-1.386c0-1.155-0.627-1.749-2.31-1.749H91.016z M104.909,145.22
		l-0.924-3.003h-3.696l-0.924,3.003h-1.963l3.746-11.434h2.194l3.646,11.434H104.909z M102.203,135.766h-0.017
		c0,0-1.171,4.108-1.436,4.867h2.805C103.44,140.386,102.286,136.211,102.203,135.766z M117.697,145.22l-0.528-7.078
		c-0.049-0.726-0.083-1.584-0.083-1.931c-0.083,0.379-0.231,1.056-0.445,1.782l-2.079,7.227h-1.617l-1.898-6.913
		c-0.214-0.759-0.429-1.732-0.495-2.112c0,0.38-0.066,1.419-0.116,2.129l-0.495,6.896h-1.864l1.04-11.418h2.524l1.749,6.468
		c0.264,0.957,0.363,1.552,0.429,1.898c0.05-0.347,0.198-1.073,0.413-1.865l1.799-6.501h2.524l1.006,11.418H117.697z
		 M131.292,145.22l-0.528-7.078c-0.049-0.726-0.083-1.584-0.083-1.931c-0.083,0.379-0.231,1.056-0.445,1.782l-2.079,7.227h-1.617
		l-1.897-6.913c-0.214-0.759-0.429-1.732-0.495-2.112c0,0.38-0.066,1.419-0.115,2.129l-0.495,6.896h-1.864l1.04-11.418h2.524
		l1.749,6.468c0.264,0.957,0.363,1.552,0.429,1.898c0.05-0.347,0.198-1.073,0.413-1.865l1.798-6.501h2.525l1.006,11.418H131.292z
		 M135.797,145.22v-11.418h6.336l-0.248,1.551h-4.191v3.119h3.515v1.567h-3.481v3.563h4.57v1.617H135.797z"/>
	<path fill="#00AEEF" d="M108.059,109.04l-0.346,5.479l74.465,0.004C168.504,111.891,131.952,109.782,108.059,109.04"/>
	<path fill="#00AEEF" d="M133.006,12.354l-2.045-4.512C96.803,31.521,73.905,70.336,72.045,114.504h4.877
		C78.766,72.308,100.52,35.197,133.006,12.354"/>
	<path fill="#00AEEF" d="M136.02,19.001l-2.072-4.571c-31.717,22.457-52.946,58.786-54.782,100.074h4.93
		C85.911,75.209,105.989,40.605,136.02,19.001"/>
	<path fill="#00AEEF" d="M142.071,32.347l-2.125-4.687c-26.85,19.973-44.76,51.318-46.533,86.844h5.029
		C100.192,81.014,116.936,51.43,142.071,32.347"/>
	<path fill="#00AEEF" d="M139.041,25.666l-2.095-4.625c-29.282,21.222-48.85,55.056-50.657,93.463h4.977
		C93.051,78.11,111.461,46.015,139.041,25.666"/>
	<path fill="#00AEEF" d="M142.959,34.305c-24.42,18.709-40.679,47.556-42.418,80.199h5.082
		c1.709-30.588,16.791-57.664,39.485-75.459L142.959,34.305z"/>
	<path fill="#034EA2" d="M136.955,21.064l-64.943,0.014v4.584l67.029,0.004L136.955,21.064z M139.944,27.674l-67.932,0.013v4.662
		l70.059-0.002L139.944,27.674z M142.955,34.318l-70.943,0.014v4.721l73.096-0.008L142.955,34.318z M133.946,14.429l-61.934,0.014
		v4.578l64.008-0.02L133.946,14.429z M130.979,7.845L72.012,7.86v4.489l60.994-0.002L130.979,7.845z"/>
</g>
</svg>
